# Blender v2.78 (sub 5) OBJ File: ''
# www.blender.org
o Cube
v 0.030670 0.500000 -0.500000
v -0.500000 0.500000 -0.030670
v -0.500000 0.500000 0.030670
v -0.482322 0.482322 0.000000
v 0.500000 0.500000 0.030670
v 0.500000 0.500000 -0.030670
v -0.030670 0.500000 0.030670
v 0.030670 0.500000 0.030670
v 0.030670 0.500000 -0.030670
v -0.030670 0.500000 -0.030670
v 0.000000 0.475000 0.030670
v 0.000000 0.475000 0.000000
v 0.030670 0.475000 0.000000
v 0.000000 0.475000 -0.030670
v -0.030670 0.475000 0.000000
v 0.500000 -0.500000 0.500000
v 0.030670 -0.500000 -0.500000
v -0.030671 -0.500000 -0.500000
v -0.000000 -0.482322 -0.482322
v 0.030670 -0.500000 0.500000
v -0.500000 -0.500000 0.030670
v 0.030670 -0.500000 0.030670
v -0.030671 -0.500000 0.030670
v -0.030671 -0.500000 -0.030671
v 0.030670 -0.500000 -0.030671
v -0.000000 -0.475000 0.030670
v -0.000000 -0.475000 -0.000000
v -0.030671 -0.475000 -0.000000
v -0.000000 -0.475000 -0.030671
v 0.030670 -0.475000 -0.000000
v -0.500000 -0.500000 0.500000
v -0.500000 0.500000 0.500000
v 0.500000 0.500000 0.500000
v -0.030670 0.500000 0.500000
v 0.030670 0.500000 0.500000
v 0.000000 0.482322 0.482322
v -0.030670 -0.500000 0.500000
v 0.000000 -0.482322 0.482322
v -0.500000 0.030670 0.500000
v -0.500000 -0.030671 0.500000
v -0.482322 -0.000000 0.482322
v 0.500000 -0.030671 0.500000
v 0.500000 0.030670 0.500000
v 0.482322 -0.000000 0.482322
v -0.030670 -0.030671 0.500000
v 0.030670 -0.030671 0.500000
v 0.030670 0.030670 0.500000
v -0.030670 0.030670 0.500000
v 0.000000 -0.030670 0.475000
v 0.000000 -0.000000 0.475000
v 0.030670 -0.000000 0.475000
v 0.000000 0.030670 0.475000
v -0.030670 -0.000000 0.475000
v 0.500000 0.500000 -0.500000
v -0.500000 0.500000 -0.500000
v -0.030671 0.500000 -0.500000
v -0.000000 0.482322 -0.482322
v 0.030670 -0.030670 -0.500000
v -0.030671 -0.030670 -0.500000
v -0.030671 0.030671 -0.500000
v 0.030670 0.030671 -0.500000
v -0.000000 -0.030670 -0.475000
v -0.000000 0.000000 -0.475000
v -0.030671 0.000000 -0.475000
v -0.000000 0.030671 -0.475000
v 0.030670 0.000000 -0.475000
v 0.500000 -0.500000 -0.500000
v 0.482322 0.482322 -0.000000
v 0.500000 -0.500000 0.030670
v 0.500000 -0.500000 -0.030670
v 0.482322 -0.482322 -0.000000
v 0.500000 -0.030671 -0.500000
v 0.500000 0.030670 -0.500000
v 0.482322 -0.000000 -0.482322
v 0.500000 -0.030671 0.030670
v 0.500000 -0.030671 -0.030671
v 0.500000 0.030670 -0.030670
v 0.500000 0.030670 0.030670
v 0.475000 -0.030670 -0.000000
v 0.475000 -0.000000 -0.000000
v 0.475000 -0.000000 -0.030670
v 0.475000 0.030670 -0.000000
v 0.475000 -0.000000 0.030670
v -0.500000 -0.500000 -0.500000
v -0.500000 -0.500000 -0.030670
v -0.482322 -0.482322 0.000000
v -0.500000 0.030671 -0.500000
v -0.500000 -0.030670 -0.500000
v -0.482322 0.000000 -0.482322
v -0.500000 -0.030670 -0.030670
v -0.500000 -0.030670 0.030671
v -0.500000 0.030671 0.030671
v -0.500000 0.030671 -0.030670
v -0.475000 -0.030670 0.000000
v -0.475000 0.000000 0.000000
v -0.475000 0.000000 0.030671
v -0.475000 0.030671 0.000000
v -0.475000 0.000000 -0.030670
vt 0.469330 1.000000
vt 0.000000 1.000000
vt 0.000000 0.530671
vt 0.469330 0.530671
vt 1.000000 0.469330
vt 0.530671 0.469330
vt 0.530671 0.000000
vt 1.000000 0.000000
vt 0.469330 0.469330
vt 0.000000 0.469330
vt 0.000000 0.000000
vt 0.469330 0.000000
vt 1.000000 1.000000
vt 0.530671 1.000000
vt 0.530671 0.530671
vt 1.000000 0.530671
vt 0.500000 0.469330
vt 0.500000 0.500000
vt 0.469330 0.500000
vt 0.530671 0.500000
vt 0.500000 0.530671
vt 0.500000 0.017678
vt 0.500000 0.982322
vt 0.982323 0.500000
vt 0.017677 0.500000
vt 0.469330 1.000000
vt 0.000000 1.000000
vt 0.000000 0.530671
vt 0.469330 0.530671
vt 1.000000 0.469330
vt 0.530671 0.469330
vt 0.530671 0.000000
vt 1.000000 0.000000
vt 0.469330 0.469330
vt 0.000000 0.469330
vt 0.000000 0.000000
vt 0.469330 0.000000
vt 1.000000 1.000000
vt 0.530671 1.000000
vt 0.530671 0.530671
vt 1.000000 0.530671
vt 0.500000 0.469330
vt 0.500000 0.500000
vt 0.469330 0.500000
vt 0.530671 0.500000
vt 0.500000 0.530671
vt 0.500000 0.017678
vt 0.500000 0.982322
vt 0.982323 0.500000
vt 0.017677 0.500000
vt 0.469330 1.000000
vt 0.000000 1.000000
vt 0.000000 0.530671
vt 0.469330 0.530671
vt 1.000000 0.469330
vt 0.530671 0.469330
vt 0.530671 0.000000
vt 1.000000 0.000000
vt 0.469330 0.469330
vt 0.000000 0.469330
vt 0.000000 0.000000
vt 0.469330 0.000000
vt 1.000000 1.000000
vt 0.530671 1.000000
vt 0.530671 0.530671
vt 1.000000 0.530671
vt 0.500000 0.469330
vt 0.500000 0.500000
vt 0.469330 0.500000
vt 0.530671 0.500000
vt 0.500000 0.530671
vt 0.500000 0.982322
vt 0.982323 0.500000
vt 0.017677 0.500000
vt 0.469330 1.000000
vt 0.000000 1.000000
vt 0.000000 0.530671
vt 0.469330 0.530671
vt 1.000000 0.469330
vt 0.530671 0.469330
vt 0.530671 0.000000
vt 1.000000 0.000000
vt 0.469330 0.469330
vt 0.000000 0.469330
vt 0.000000 0.000000
vt 0.469330 0.000000
vt 1.000000 1.000000
vt 0.530671 1.000000
vt 0.530671 0.530671
vt 1.000000 0.530671
vt 0.500000 0.469330
vt 0.500000 0.500000
vt 0.469330 0.500000
vt 0.530671 0.500000
vt 0.500000 0.530671
vt 0.500000 0.017678
vt 0.982323 0.500000
vt 0.017677 0.500000
vt 0.469330 1.000000
vt 0.000000 1.000000
vt 0.000000 0.530671
vt 0.469330 0.530671
vt 1.000000 0.469330
vt 0.530671 0.469330
vt 0.530671 0.000000
vt 1.000000 0.000000
vt 0.469330 0.469330
vt 0.000000 0.469330
vt 0.469330 0.000000
vt 0.530671 1.000000
vt 0.530671 0.530671
vt 1.000000 0.530671
vt 0.500000 0.469330
vt 0.500000 0.500000
vt 0.469330 0.500000
vt 0.530671 0.500000
vt 0.500000 0.530671
vt 0.500000 0.017678
vt 0.500000 0.982322
vt 0.982323 0.500000
vt 0.017677 0.500000
vt 0.469330 1.000000
vt 0.000000 0.530671
vt 0.469330 0.530671
vt 1.000000 0.469330
vt 0.530671 0.469330
vt 0.530671 0.000000
vt 0.469330 0.469330
vt 0.000000 0.469330
vt 0.000000 0.000000
vt 0.469330 0.000000
vt 1.000000 1.000000
vt 0.530671 1.000000
vt 0.530671 0.530671
vt 1.000000 0.530671
vt 0.500000 0.469330
vt 0.500000 0.500000
vt 0.469330 0.500000
vt 0.530671 0.500000
vt 0.500000 0.530671
vt 0.500000 0.017678
vt 0.500000 0.982322
vt 0.982323 0.500000
vt 0.017677 0.500000
vn 0.0000 1.0000 0.0000
vn 0.3531 0.8664 -0.3531
vn -0.3531 0.8664 -0.3531
vn -0.3531 0.8664 0.3531
vn 0.3531 0.8664 0.3531
vn 0.5698 0.8217 -0.0065
vn -0.5698 0.8217 -0.0065
vn 0.5698 0.8217 0.0065
vn -0.5698 0.8217 0.0065
vn -0.0065 0.8217 -0.5698
vn -0.0065 0.8217 0.5698
vn 0.0065 0.8217 -0.5698
vn 0.0065 0.8217 0.5698
vn -0.0000 -1.0000 -0.0000
vn -0.3531 -0.8664 -0.3531
vn 0.3531 -0.8664 -0.3531
vn 0.3531 -0.8664 0.3531
vn -0.3531 -0.8664 0.3531
vn -0.5698 -0.8217 -0.0065
vn 0.5698 -0.8217 -0.0065
vn -0.5698 -0.8217 0.0065
vn 0.5698 -0.8217 0.0065
vn 0.0065 -0.8217 -0.5698
vn 0.0065 -0.8217 0.5698
vn -0.0065 -0.8217 -0.5698
vn -0.0065 -0.8217 0.5698
vn 0.0000 -0.0000 1.0000
vn 0.3531 0.3531 0.8664
vn -0.3531 0.3531 0.8664
vn -0.3531 -0.3531 0.8664
vn 0.3531 -0.3531 0.8664
vn 0.5698 0.0065 0.8217
vn -0.5698 0.0065 0.8217
vn 0.5698 -0.0065 0.8217
vn -0.5698 -0.0065 0.8217
vn -0.0065 0.5698 0.8217
vn -0.0065 -0.5698 0.8217
vn 0.0065 0.5698 0.8217
vn 0.0065 -0.5698 0.8217
vn 0.0000 0.0000 -1.0000
vn -0.3531 0.3531 -0.8664
vn 0.3531 0.3531 -0.8664
vn 0.3531 -0.3531 -0.8664
vn -0.3531 -0.3531 -0.8664
vn -0.5698 0.0065 -0.8217
vn 0.5698 0.0065 -0.8217
vn -0.5698 -0.0065 -0.8217
vn 0.5698 -0.0065 -0.8217
vn 0.0065 0.5698 -0.8217
vn 0.0065 -0.5698 -0.8217
vn -0.0065 0.5698 -0.8217
vn -0.0065 -0.5698 -0.8217
vn 1.0000 0.0000 0.0000
vn 0.8664 0.3531 -0.3531
vn 0.8664 0.3531 0.3531
vn 0.8664 -0.3531 0.3531
vn 0.8664 -0.3531 -0.3531
vn 0.8217 0.0065 -0.5698
vn 0.8217 0.0065 0.5698
vn 0.8217 -0.0065 -0.5698
vn 0.8217 -0.0065 0.5698
vn 0.8217 0.5698 0.0065
vn 0.8217 -0.5698 0.0065
vn 0.8217 0.5698 -0.0065
vn 0.8217 -0.5698 -0.0065
vn -1.0000 0.0000 -0.0000
vn -0.8664 0.3531 0.3531
vn -0.8664 0.3531 -0.3531
vn -0.8664 -0.3531 -0.3531
vn -0.8664 -0.3531 0.3531
vn -0.8217 0.0065 0.5698
vn -0.8217 0.0065 -0.5698
vn -0.8217 -0.0065 0.5698
vn -0.8217 -0.0065 -0.5698
vn -0.8217 0.5698 -0.0065
vn -0.8217 -0.5698 -0.0065
vn -0.8217 0.5698 0.0065
vn -0.8217 -0.5698 0.0065
s off
f 56/1/1 55/2/1 2/3/1 10/4/1
f 5/5/1 8/6/1 35/7/1 33/8/1
f 7/9/1 3/10/1 32/11/1 34/12/1
f 54/13/1 1/14/1 9/15/1 6/16/1
f 7/9/2 11/17/2 12/18/2 15/19/2
f 8/6/3 13/20/3 12/18/3 11/17/3
f 9/15/4 14/21/4 12/18/4 13/20/4
f 10/4/5 15/19/5 12/18/5 14/21/5
f 7/9/6 34/12/6 36/22/6 11/17/6
f 11/17/7 36/22/7 35/7/7 8/6/7
f 56/1/8 10/4/8 14/21/8 57/23/8
f 57/23/9 14/21/9 9/15/9 1/14/9
f 8/6/10 5/5/10 68/24/10 13/20/10
f 13/20/11 68/24/11 6/16/11 9/15/11
f 3/10/12 7/9/12 15/19/12 4/25/12
f 4/25/13 15/19/13 10/4/13 2/3/13
f 17/26/14 67/27/14 70/28/14 25/29/14
f 21/30/14 23/31/14 37/32/14 31/33/14
f 22/34/14 69/35/14 16/36/14 20/37/14
f 84/38/14 18/39/14 24/40/14 85/41/14
f 22/34/15 26/42/15 27/43/15 30/44/15
f 23/31/16 28/45/16 27/43/16 26/42/16
f 24/40/17 29/46/17 27/43/17 28/45/17
f 25/29/18 30/44/18 27/43/18 29/46/18
f 22/34/19 20/37/19 38/47/19 26/42/19
f 26/42/20 38/47/20 37/32/20 23/31/20
f 17/26/21 25/29/21 29/46/21 19/48/21
f 19/48/22 29/46/22 24/40/22 18/39/22
f 23/31/23 21/30/23 86/49/23 28/45/23
f 28/45/24 86/49/24 85/41/24 24/40/24
f 69/35/25 22/34/25 30/44/25 71/50/25
f 71/50/26 30/44/26 25/29/26 70/28/26
f 34/51/27 32/52/27 39/53/27 48/54/27
f 42/55/27 46/56/27 20/57/27 16/58/27
f 45/59/27 40/60/27 31/61/27 37/62/27
f 33/63/27 35/64/27 47/65/27 43/66/27
f 45/59/28 49/67/28 50/68/28 53/69/28
f 46/56/29 51/70/29 50/68/29 49/67/29
f 47/65/30 52/71/30 50/68/30 51/70/30
f 48/54/31 53/69/31 50/68/31 52/71/31
f 45/59/32 37/62/32 38/47/32 49/67/32
f 49/67/33 38/47/33 20/57/33 46/56/33
f 34/51/34 48/54/34 52/71/34 36/72/34
f 36/72/35 52/71/35 47/65/35 35/64/35
f 46/56/36 42/55/36 44/73/36 51/70/36
f 51/70/37 44/73/37 43/66/37 47/65/37
f 40/60/38 45/59/38 53/69/38 41/74/38
f 41/74/39 53/69/39 48/54/39 39/53/39
f 1/75/40 54/76/40 73/77/40 61/78/40
f 88/79/40 59/80/40 18/81/40 84/82/40
f 58/83/40 72/84/40 67/85/40 17/86/40
f 55/87/40 56/88/40 60/89/40 87/90/40
f 58/83/41 62/91/41 63/92/41 66/93/41
f 59/80/42 64/94/42 63/92/42 62/91/42
f 60/89/43 65/95/43 63/92/43 64/94/43
f 61/78/44 66/93/44 63/92/44 65/95/44
f 58/83/45 17/86/45 19/96/45 62/91/45
f 62/91/46 19/96/46 18/81/46 59/80/46
f 1/75/47 61/78/47 65/95/47 57/23/47
f 57/23/48 65/95/48 60/89/48 56/88/48
f 59/80/49 88/79/49 89/97/49 64/94/49
f 64/94/50 89/97/50 87/90/50 60/89/50
f 72/84/51 58/83/51 66/93/51 74/98/51
f 74/98/52 66/93/52 61/78/52 73/77/52
f 5/99/53 33/100/53 43/101/53 78/102/53
f 72/103/53 76/104/53 70/105/53 67/106/53
f 75/107/53 42/108/53 16/36/53 69/109/53
f 54/13/53 6/110/53 77/111/53 73/112/53
f 75/107/54 79/113/54 80/114/54 83/115/54
f 76/104/55 81/116/55 80/114/55 79/113/55
f 77/111/56 82/117/56 80/114/56 81/116/56
f 78/102/57 83/115/57 80/114/57 82/117/57
f 75/107/58 69/109/58 71/118/58 79/113/58
f 79/113/59 71/118/59 70/105/59 76/104/59
f 5/99/60 78/102/60 82/117/60 68/119/60
f 68/119/61 82/117/61 77/111/61 6/110/61
f 76/104/62 72/103/62 74/120/62 81/116/62
f 81/116/63 74/120/63 73/112/63 77/111/63
f 42/108/64 75/107/64 83/115/64 44/121/64
f 44/121/65 83/115/65 78/102/65 43/101/65
f 2/122/66 55/2/66 87/123/66 93/124/66
f 40/125/66 91/126/66 21/127/66 31/33/66
f 90/128/66 88/129/66 84/130/66 85/131/66
f 32/132/66 3/133/66 92/134/66 39/135/66
f 90/128/67 94/136/67 95/137/67 98/138/67
f 91/126/68 96/139/68 95/137/68 94/136/68
f 92/134/69 97/140/69 95/137/69 96/139/69
f 93/124/70 98/138/70 95/137/70 97/140/70
f 90/128/71 85/131/71 86/141/71 94/136/71
f 94/136/72 86/141/72 21/127/72 91/126/72
f 2/122/73 93/124/73 97/140/73 4/142/73
f 4/142/74 97/140/74 92/134/74 3/133/74
f 91/126/75 40/125/75 41/143/75 96/139/75
f 96/139/76 41/143/76 39/135/76 92/134/76
f 88/129/77 90/128/77 98/138/77 89/144/77
f 89/144/78 98/138/78 93/124/78 87/123/78
