# Blender v2.78 (sub 5) OBJ File: ''
# www.blender.org
o Cube
v -0.030671 0.500000 -0.500000
v -0.500000 0.500000 -0.500000
v -0.500000 0.500000 -0.030670
v -0.030670 0.500000 -0.030670
v 0.500000 0.500000 0.030670
v 0.030670 0.500000 0.030670
v 0.030670 0.500000 0.500000
v 0.500000 0.500000 0.500000
v -0.030670 0.500000 0.030670
v -0.500000 0.500000 0.030670
v -0.500000 0.500000 0.500000
v -0.030670 0.500000 0.500000
v 0.500000 0.500000 -0.500000
v 0.030670 0.500000 -0.500000
v 0.030670 0.500000 -0.030670
v 0.500000 0.500000 -0.030670
v 0.000000 0.475000 0.030670
v 0.000000 0.475000 0.000000
v -0.030670 0.475000 0.000000
v 0.030670 0.475000 0.000000
v 0.000000 0.475000 -0.030670
v 0.000000 0.482322 0.482322
v 0.000000 0.482322 -0.482322
v 0.482322 0.482322 0.000000
v -0.482322 0.482322 0.000000
v 0.030670 -0.500000 -0.500000
v 0.500000 -0.500000 -0.500000
v 0.500000 -0.500000 -0.030670
v 0.030670 -0.500000 -0.030671
v -0.500000 -0.500000 0.030670
v -0.030671 -0.500000 0.030670
v -0.030670 -0.500000 0.500000
v -0.500000 -0.500000 0.500000
v 0.030670 -0.500000 0.030670
v 0.500000 -0.500000 0.030670
v 0.500000 -0.500000 0.500000
v 0.030670 -0.500000 0.500000
v -0.500000 -0.500000 -0.500000
v -0.030671 -0.500000 -0.500000
v -0.030671 -0.500000 -0.030671
v -0.500000 -0.500000 -0.030670
v 0.000000 -0.475000 0.030670
v 0.000000 -0.475000 -0.000000
v 0.030670 -0.475000 -0.000000
v -0.030671 -0.475000 -0.000000
v 0.000000 -0.475000 -0.030671
v 0.000000 -0.482322 0.482322
v 0.000000 -0.482322 -0.482322
v -0.482322 -0.482322 -0.000000
v 0.482322 -0.482322 -0.000000
v -0.500000 0.030670 0.500000
v -0.030670 0.030670 0.500000
v 0.500000 -0.030671 0.500000
v 0.030670 -0.030671 0.500000
v -0.030670 -0.030671 0.500000
v -0.500000 -0.030671 0.500000
v 0.030670 0.030670 0.500000
v 0.500000 0.030670 0.500000
v 0.000000 -0.030670 0.475000
v 0.000000 -0.000000 0.475000
v -0.030670 -0.000000 0.475000
v 0.030670 -0.000000 0.475000
v 0.000000 0.030670 0.475000
v 0.482322 -0.000000 0.482322
v -0.482322 -0.000000 0.482322
v 0.500000 0.030670 -0.500000
v 0.030670 0.030671 -0.500000
v -0.500000 -0.030670 -0.500000
v -0.030671 -0.030670 -0.500000
v 0.030670 -0.030670 -0.500000
v 0.500000 -0.030671 -0.500000
v -0.030671 0.030671 -0.500000
v -0.500000 0.030671 -0.500000
v 0.000000 -0.030670 -0.475000
v 0.000000 0.000000 -0.475000
v 0.030670 0.000000 -0.475000
v -0.030671 0.000000 -0.475000
v 0.000000 0.030671 -0.475000
v -0.482322 0.000000 -0.482322
v 0.482322 0.000000 -0.482322
v 0.500000 0.030670 0.030670
v 0.500000 -0.030671 -0.030671
v 0.500000 -0.030671 0.030670
v 0.500000 0.030670 -0.030670
v 0.475000 -0.030670 -0.000000
v 0.475000 0.000000 0.000000
v 0.475000 -0.000000 0.030670
v 0.475000 0.000000 -0.030670
v 0.475000 0.030670 0.000000
v -0.500000 0.030671 -0.030670
v -0.500000 -0.030670 0.030671
v -0.500000 -0.030670 -0.030670
v -0.500000 0.030671 0.030671
v -0.475000 -0.030670 -0.000000
v -0.475000 0.000000 0.000000
v -0.475000 0.000000 -0.030670
v -0.475000 -0.000000 0.030671
v -0.475000 0.030671 0.000000
vt 0.469330 1.000000
vt 0.000000 1.000000
vt 0.000000 0.530671
vt 0.469330 0.530671
vt 1.000000 0.469330
vt 0.530671 0.469330
vt 0.530671 0.000000
vt 1.000000 0.000000
vt 0.469330 0.469330
vt 0.000000 0.469330
vt 0.000000 0.000000
vt 0.469330 0.000000
vt 1.000000 1.000000
vt 0.530671 1.000000
vt 0.530671 0.530671
vt 1.000000 0.530671
vt 0.500000 0.469330
vt 0.500000 0.500000
vt 0.469330 0.500000
vt 0.530671 0.500000
vt 0.500000 0.530671
vt 0.500000 0.017678
vt 0.500000 0.982322
vt 0.982323 0.500000
vt 0.017677 0.500000
vt 0.469330 1.000000
vt 0.000000 1.000000
vt 0.000000 0.530671
vt 0.469330 0.530671
vt 1.000000 0.469330
vt 0.530671 0.469330
vt 0.530671 0.000000
vt 1.000000 0.000000
vt 0.469330 0.469330
vt 0.000000 0.469330
vt 0.000000 0.000000
vt 0.469330 0.000000
vt 1.000000 1.000000
vt 0.530671 1.000000
vt 0.530671 0.530671
vt 1.000000 0.530671
vt 0.500000 0.469330
vt 0.500000 0.500000
vt 0.469330 0.500000
vt 0.530671 0.500000
vt 0.500000 0.530671
vt 0.500000 0.017678
vt 0.500000 0.982322
vt 0.982323 0.500000
vt 0.017677 0.500000
vt 0.469330 1.000000
vt 0.000000 1.000000
vt 0.000000 0.530671
vt 0.469330 0.530671
vt 1.000000 0.469330
vt 0.530671 0.469330
vt 0.530671 0.000000
vt 1.000000 0.000000
vt 0.469330 0.469330
vt 0.000000 0.469330
vt 0.000000 0.000000
vt 0.469330 0.000000
vt 1.000000 1.000000
vt 0.530671 1.000000
vt 0.530671 0.530671
vt 1.000000 0.530671
vt 0.500000 0.469330
vt 0.500000 0.500000
vt 0.469330 0.500000
vt 0.530671 0.500000
vt 0.500000 0.530671
vt 0.500000 0.982322
vt 0.982323 0.500000
vt 0.017677 0.500000
vt 0.469330 1.000000
vt 0.000000 1.000000
vt 0.000000 0.530671
vt 0.469330 0.530671
vt 1.000000 0.469330
vt 0.530671 0.469330
vt 0.530671 0.000000
vt 1.000000 0.000000
vt 0.469330 0.469330
vt 0.000000 0.469330
vt 0.000000 0.000000
vt 0.469330 0.000000
vt 1.000000 1.000000
vt 0.530671 1.000000
vt 0.530671 0.530671
vt 1.000000 0.530671
vt 0.500000 0.469330
vt 0.500000 0.500000
vt 0.469330 0.500000
vt 0.530671 0.500000
vt 0.500000 0.530671
vt 0.500000 0.017678
vt 0.982323 0.500000
vt 0.017677 0.500000
vt 0.469330 1.000000
vt 0.000000 1.000000
vt 0.000000 0.530671
vt 0.469330 0.530671
vt 1.000000 0.469330
vt 0.530671 0.469330
vt 0.530671 0.000000
vt 1.000000 0.000000
vt 0.469330 0.469330
vt 0.000000 0.469330
vt 0.469330 0.000000
vt 0.530671 1.000000
vt 0.530671 0.530671
vt 1.000000 0.530671
vt 0.500000 0.469330
vt 0.500000 0.500000
vt 0.469330 0.500000
vt 0.530671 0.500000
vt 0.500000 0.530671
vt 0.500000 0.017678
vt 0.500000 0.982322
vt 0.982323 0.500000
vt 0.017677 0.500000
vt 0.469330 1.000000
vt 0.000000 0.530671
vt 0.469330 0.530671
vt 1.000000 0.469330
vt 0.530671 0.469330
vt 0.530671 0.000000
vt 0.469330 0.469330
vt 0.000000 0.469330
vt 0.000000 0.000000
vt 0.469330 0.000000
vt 1.000000 1.000000
vt 0.530671 1.000000
vt 0.530671 0.530671
vt 1.000000 0.530671
vt 0.500000 0.469330
vt 0.500000 0.500000
vt 0.469330 0.500000
vt 0.530671 0.500000
vt 0.500000 0.530671
vt 0.500000 0.017678
vt 0.500000 0.982322
vt 0.982323 0.500000
vt 0.017677 0.500000
vn 0.3394 0.6651 -0.6651
vn -0.5774 0.5774 -0.5774
vn -0.6651 0.6651 0.3394
vn 0.2399 0.9407 0.2399
vn 0.6651 0.6651 -0.3394
vn -0.2399 0.9407 -0.2399
vn -0.3394 0.6651 0.6651
vn 0.5774 0.5774 0.5774
vn 0.2399 0.9407 -0.2399
vn -0.6651 0.6651 -0.3394
vn -0.5774 0.5774 0.5774
vn 0.3394 0.6651 0.6651
vn 0.5774 0.5774 -0.5774
vn -0.3394 0.6651 -0.6651
vn -0.2399 0.9407 0.2399
vn 0.6651 0.6651 0.3394
vn 0.0000 0.9779 -0.2090
vn 0.0000 1.0000 0.0000
vn 0.2090 0.9779 0.0000
vn -0.2090 0.9779 0.0000
vn -0.0000 0.9779 0.2090
vn 0.0000 0.7071 0.7071
vn -0.0000 0.7071 -0.7071
vn 0.7071 0.7071 0.0000
vn -0.7071 0.7071 0.0000
vn -0.3394 -0.6651 -0.6651
vn 0.5774 -0.5774 -0.5774
vn 0.6651 -0.6651 0.3394
vn -0.2399 -0.9407 0.2399
vn -0.6651 -0.6651 -0.3394
vn 0.2399 -0.9407 -0.2399
vn 0.3394 -0.6651 0.6651
vn -0.5774 -0.5774 0.5774
vn -0.2399 -0.9407 -0.2399
vn 0.6651 -0.6651 -0.3394
vn 0.5774 -0.5774 0.5774
vn -0.3394 -0.6651 0.6651
vn -0.5774 -0.5774 -0.5774
vn 0.3394 -0.6651 -0.6651
vn 0.2399 -0.9407 0.2399
vn -0.6651 -0.6651 0.3394
vn -0.0000 -0.9779 -0.2090
vn -0.0000 -1.0000 -0.0000
vn -0.2090 -0.9779 -0.0000
vn 0.2090 -0.9779 -0.0000
vn -0.0000 -0.9779 0.2090
vn -0.0000 -0.7071 0.7071
vn -0.0000 -0.7071 -0.7071
vn -0.7071 -0.7071 -0.0000
vn 0.7071 -0.7071 -0.0000
vn -0.6651 -0.3394 0.6651
vn 0.2399 -0.2399 0.9407
vn 0.6651 0.3394 0.6651
vn -0.2399 0.2399 0.9407
vn 0.2399 0.2399 0.9407
vn -0.6651 0.3394 0.6651
vn -0.2399 -0.2399 0.9407
vn 0.6651 -0.3394 0.6651
vn -0.0000 0.2090 0.9779
vn 0.0000 -0.0000 1.0000
vn 0.2090 -0.0000 0.9779
vn -0.2090 -0.0000 0.9779
vn 0.0000 -0.2090 0.9779
vn 0.7071 -0.0000 0.7071
vn -0.7071 -0.0000 0.7071
vn 0.6651 -0.3394 -0.6651
vn -0.2399 -0.2399 -0.9407
vn -0.6651 0.3394 -0.6651
vn 0.2399 0.2399 -0.9407
vn -0.2399 0.2399 -0.9407
vn 0.6651 0.3394 -0.6651
vn 0.2399 -0.2399 -0.9407
vn -0.6651 -0.3394 -0.6651
vn -0.0000 0.2090 -0.9779
vn -0.0000 0.0000 -1.0000
vn -0.2090 0.0000 -0.9779
vn 0.2090 0.0000 -0.9779
vn -0.0000 -0.2090 -0.9779
vn -0.7071 0.0000 -0.7071
vn 0.7071 -0.0000 -0.7071
vn 0.9407 -0.2399 -0.2399
vn 0.9407 0.2399 0.2399
vn 0.9407 0.2399 -0.2399
vn 0.9407 -0.2399 0.2399
vn 0.9779 0.2090 -0.0000
vn 1.0000 -0.0000 -0.0000
vn 0.9779 -0.0000 -0.2090
vn 0.9779 -0.0000 0.2090
vn 0.9779 -0.2090 -0.0000
vn -0.9407 -0.2399 0.2399
vn -0.9407 0.2399 -0.2399
vn -0.9407 0.2399 0.2399
vn -0.9407 -0.2399 -0.2399
vn -0.9779 0.2090 0.0000
vn -1.0000 0.0000 0.0000
vn -0.9779 0.0000 0.2090
vn -0.9779 0.0000 -0.2090
vn -0.9779 -0.2090 0.0000
s 1
f 1/1/1 2/2/2 3/3/3 4/4/4
f 5/5/5 6/6/6 7/7/7 8/8/8
f 9/9/9 10/10/10 11/11/11 12/12/12
f 13/13/13 14/14/14 15/15/15 16/16/16
f 9/9/9 17/17/17 18/18/18 19/19/19
f 6/6/6 20/20/20 18/18/18 17/17/17
f 15/15/15 21/21/21 18/18/18 20/20/20
f 4/4/4 19/19/19 18/18/18 21/21/21
f 9/9/9 12/12/12 22/22/22 17/17/17
f 17/17/17 22/22/22 7/7/7 6/6/6
f 1/1/1 4/4/4 21/21/21 23/23/23
f 23/23/23 21/21/21 15/15/15 14/14/14
f 6/6/6 5/5/5 24/24/24 20/20/20
f 20/20/20 24/24/24 16/16/16 15/15/15
f 10/10/10 9/9/9 19/19/19 25/25/25
f 25/25/25 19/19/19 4/4/4 3/3/3
f 26/26/26 27/27/27 28/28/28 29/29/29
f 30/30/30 31/31/31 32/32/32 33/33/33
f 34/34/34 35/35/35 36/36/36 37/37/37
f 38/38/38 39/39/39 40/40/40 41/41/41
f 34/34/34 42/42/42 43/43/43 44/44/44
f 31/31/31 45/45/45 43/43/43 42/42/42
f 40/40/40 46/46/46 43/43/43 45/45/45
f 29/29/29 44/44/44 43/43/43 46/46/46
f 34/34/34 37/37/37 47/47/47 42/42/42
f 42/42/42 47/47/47 32/32/32 31/31/31
f 26/26/26 29/29/29 46/46/46 48/48/48
f 48/48/48 46/46/46 40/40/40 39/39/39
f 31/31/31 30/30/30 49/49/49 45/45/45
f 45/45/45 49/49/49 41/41/41 40/40/40
f 35/35/35 34/34/34 44/44/44 50/50/50
f 50/50/50 44/44/44 29/29/29 28/28/28
f 12/51/12 11/52/11 51/53/51 52/54/52
f 53/55/53 54/56/54 37/57/37 36/58/36
f 55/59/55 56/60/56 33/61/33 32/62/32
f 8/63/8 7/64/7 57/65/57 58/66/58
f 55/59/55 59/67/59 60/68/60 61/69/61
f 54/56/54 62/70/62 60/68/60 59/67/59
f 57/65/57 63/71/63 60/68/60 62/70/62
f 52/54/52 61/69/61 60/68/60 63/71/63
f 55/59/55 32/62/32 47/47/47 59/67/59
f 59/67/59 47/47/47 37/57/37 54/56/54
f 12/51/12 52/54/52 63/71/63 22/72/22
f 22/72/22 63/71/63 57/65/57 7/64/7
f 54/56/54 53/55/53 64/73/64 62/70/62
f 62/70/62 64/73/64 58/66/58 57/65/57
f 56/60/56 55/59/55 61/69/61 65/74/65
f 65/74/65 61/69/61 52/54/52 51/53/51
f 14/75/14 13/76/13 66/77/66 67/78/67
f 68/79/68 69/80/69 39/81/39 38/82/38
f 70/83/70 71/84/71 27/85/27 26/86/26
f 2/87/2 1/88/1 72/89/72 73/90/73
f 70/83/70 74/91/74 75/92/75 76/93/76
f 69/80/69 77/94/77 75/92/75 74/91/74
f 72/89/72 78/95/78 75/92/75 77/94/77
f 67/78/67 76/93/76 75/92/75 78/95/78
f 70/83/70 26/86/26 48/96/48 74/91/74
f 74/91/74 48/96/48 39/81/39 69/80/69
f 14/75/14 67/78/67 78/95/78 23/23/23
f 23/23/23 78/95/78 72/89/72 1/88/1
f 69/80/69 68/79/68 79/97/79 77/94/77
f 77/94/77 79/97/79 73/90/73 72/89/72
f 71/84/71 70/83/70 76/93/76 80/98/80
f 80/98/80 76/93/76 67/78/67 66/77/66
f 5/99/5 8/100/8 58/101/58 81/102/81
f 71/103/71 82/104/82 28/105/28 27/106/27
f 83/107/83 53/108/53 36/36/36 35/109/35
f 13/13/13 16/110/16 84/111/84 66/112/66
f 83/107/83 85/113/85 86/114/86 87/115/87
f 82/104/82 88/116/88 86/114/86 85/113/85
f 84/111/84 89/117/89 86/114/86 88/116/88
f 81/102/81 87/115/87 86/114/86 89/117/89
f 83/107/83 35/109/35 50/118/50 85/113/85
f 85/113/85 50/118/50 28/105/28 82/104/82
f 5/99/5 81/102/81 89/117/89 24/119/24
f 24/119/24 89/117/89 84/111/84 16/110/16
f 82/104/82 71/103/71 80/120/80 88/116/88
f 88/116/88 80/120/80 66/112/66 84/111/84
f 53/108/53 83/107/83 87/115/87 64/121/64
f 64/121/64 87/115/87 81/102/81 58/101/58
f 3/122/3 2/2/2 73/123/73 90/124/90
f 56/125/56 91/126/91 30/127/30 33/33/33
f 92/128/92 68/129/68 38/130/38 41/131/41
f 11/132/11 10/133/10 93/134/93 51/135/51
f 92/128/92 94/136/94 95/137/95 96/138/96
f 91/126/91 97/139/97 95/137/95 94/136/94
f 93/134/93 98/140/98 95/137/95 97/139/97
f 90/124/90 96/138/96 95/137/95 98/140/98
f 92/128/92 41/131/41 49/141/49 94/136/94
f 94/136/94 49/141/49 30/127/30 91/126/91
f 3/122/3 90/124/90 98/140/98 25/142/25
f 25/142/25 98/140/98 93/134/93 10/133/10
f 91/126/91 56/125/56 65/143/65 97/139/97
f 97/139/97 65/143/65 51/135/51 93/134/93
f 68/129/68 92/128/92 96/138/96 79/144/79
f 79/144/79 96/138/96 90/124/90 73/123/73
