# Blender v2.78 (sub 5) OBJ File: ''
# www.blender.org
mtllib MACHINE.mtl
o Box001
v 3.000000 -0.000000 3.000000
v -2.999999 0.000001 3.000000
v -3.000000 0.000001 -3.000000
v 2.999999 -0.000000 -3.000000
v 3.000001 5.999999 3.000000
v 3.000000 5.999999 -3.000000
v -2.999999 6.000000 -3.000000
v -2.999998 6.000000 3.000000
v 1.499999 0.680008 3.000000
v -1.500000 0.680009 3.000000
v 1.500000 3.680007 3.000000
v -1.499999 3.680007 3.000000
v 1.499999 0.680008 -0.285685
v -1.500000 0.680009 -0.285685
v 1.500000 3.680007 -0.285685
v -1.499999 3.680007 -0.285685
vt 0.000000 0.000000
vt 1.000000 0.000000
vt 1.000000 0.000000
vt 0.000000 0.000000
vt 1.000000 1.000000
vt 1.000000 1.000000
vt 0.000000 1.000000
vt 0.000000 1.000000
vt 1.000000 0.000000
vt 0.000000 0.000000
vt 1.000000 1.000000
vt 0.000000 1.000000
vt 1.000000 1.000000
vt 0.000000 1.000000
vt 0.000000 0.000000
vt 0.000000 0.000000
vt 1.000000 0.000000
vt 1.000000 1.000000
vt 0.000000 0.000000
vt 1.000000 0.000000
vt 1.000000 1.000000
vt 0.000000 1.000000
vt 1.000000 0.000000
vt 0.000000 1.000000
vt 0.000000 0.000000
vt 1.000000 0.000000
vt 1.000000 1.000000
vt 0.000000 1.000000
vn 0.0000 0.0000 1.0000
vn 0.0000 1.0000 0.0000
vn -1.0000 0.0000 0.0000
vn -0.0000 -1.0000 0.0000
vn 1.0000 -0.0000 -0.0000
vn -0.0000 0.0000 -1.0000
usemtl wire_115115115
s off
f 2/1/1 1/2/1 9/3/1 10/4/1
f 1/2/1 5/5/1 11/6/1 9/3/1
f 5/5/1 8/7/1 12/8/1 11/6/1
f 8/7/1 2/1/1 10/4/1 12/8/1
f 10/4/2 9/3/2 13/9/2 14/10/2
f 9/3/3 11/6/3 15/11/3 13/9/3
f 11/6/4 12/8/4 16/12/4 15/11/4
f 12/8/5 10/4/5 14/10/5 16/12/5
f 13/9/1 15/11/1 16/12/1 14/10/1
s 1
f 1/2/4 2/13/4 3/14/4 4/15/4
f 5/16/2 6/17/2 7/18/2 8/7/2
f 1/19/5 4/20/5 6/21/5 5/22/5
f 4/15/6 3/23/6 7/18/6 6/24/6
f 3/25/3 2/26/3 8/27/3 7/28/3
